<?xml version="1.0" encoding="utf-8"?>
<!-- Generator: Adobe Illustrator 15.0.2, SVG Export Plug-In . SVG Version: 6.00 Build 0)  -->
<!DOCTYPE svg PUBLIC "-//W3C//DTD SVG 1.1//EN" "http://www.w3.org/Graphics/SVG/1.1/DTD/svg11.dtd">
<svg version="1.1" id="Capa_1" xmlns="http://www.w3.org/2000/svg" xmlns:xlink="http://www.w3.org/1999/xlink" x="0px" y="0px"
	 width="64px" height="64px" viewBox="-80 -80.001 64 64" enable-background="new -80 -80.001 64 64" xml:space="preserve">
<path fill="#FFFFFF" d="M-48.427-79.998c-17.673,0.236-31.805,14.756-31.57,32.429c0.236,17.666,14.755,31.801,32.426,31.565
	c17.67-0.236,31.805-14.756,31.568-32.428C-16.236-66.098-30.757-80.234-48.427-79.998z M-48.742-24.943l-0.209-0.003
	c-3.221-0.097-5.493-2.47-5.4-5.644c0.089-3.119,2.416-5.385,5.53-5.385l0.187,0.005c3.311,0.097,5.557,2.444,5.462,5.71
	C-43.263-27.128-45.554-24.943-48.742-24.943z M-35.192-51.838c-0.758,1.076-2.422,2.413-4.521,4.049l-2.312,1.596
	c-1.271,0.984-2.035,1.915-2.322,2.827c-0.226,0.719-0.336,0.908-0.357,2.37l-0.002,0.374h-8.827l0.025-0.749
	c0.107-3.069,0.183-4.873,1.456-6.366c1.996-2.344,6.398-5.18,6.587-5.3c0.63-0.475,1.161-1.016,1.558-1.594
	c0.925-1.277,1.337-2.283,1.337-3.271c0-1.371-0.408-2.639-1.212-3.767c-0.771-1.09-2.242-1.641-4.367-1.641
	c-2.107,0-3.55,0.668-4.414,2.04c-0.886,1.411-1.335,2.892-1.335,4.405v0.377H-63l0.016-0.394c0.234-5.573,2.224-9.587,5.912-11.929
	c2.315-1.491,5.199-2.247,8.561-2.247c4.401,0,8.118,1.07,11.044,3.18C-34.503-65.741-33-62.539-33-58.363
	C-33-56.027-33.735-53.832-35.192-51.838z"/>
</svg>
