<?xml version="1.0" encoding="utf-8"?>
<!DOCTYPE svg PUBLIC "-//W3C//DTD SVG 1.1//EN" "http://www.w3.org/Graphics/SVG/1.1/DTD/svg11.dtd" [
	<!ENTITY ns_flows "http://ns.adobe.com/Flows/1.0/">
]>
<svg version="1.1"
	 xmlns="http://www.w3.org/2000/svg" xmlns:xlink="http://www.w3.org/1999/xlink" xmlns:a="http://ns.adobe.com/AdobeSVGViewerExtensions/3.0/"
	 x="0px" y="0px" width="64px" height="64px" viewBox="0 0 64 64" enable-background="new 0 0 64 64" xml:space="preserve">
<defs>
</defs>
<path fill="#FFFFFF" d="M25.6,13.5c-6.7,0-12.1,5.4-12.1,12.1c0,6.7,5.4,12.1,12.1,12.1c6.7,0,12.1-5.4,12.1-12.1
	C37.7,19,32.3,13.5,25.6,13.5z M24.3,19.6c-2.6,0-4.7,2.1-4.7,4.7c0,1.1-0.9,2-2,2s-2-0.9-2-2c0-4.8,3.9-8.7,8.7-8.7
	c1.1,0,2,0.9,2,2S25.4,19.6,24.3,19.6z"/>
<path fill="#FFFFFF" d="M31.6,0C13.9,0.2-0.2,14.8,0,32.4C0.2,50.1,14.8,64.2,32.4,64C50.1,63.8,64.2,49.2,64,31.6
	C63.8,13.9,49.2-0.2,31.6,0z M25.6,41.8c-8.9,0-16.1-7.2-16.1-16.1c0-8.9,7.2-16.1,16.1-16.1c8.9,0,16.1,7.2,16.1,16.1
	C41.8,34.5,34.5,41.8,25.6,41.8z M51.3,51.3c-0.8,0.8-1.8,1.2-2.9,1.2c-1,0-2.1-0.4-2.9-1.2L35.5,41.2c2.3-1.5,4.2-3.4,5.7-5.7
	l10.1,10.1C52.9,47.2,52.9,49.8,51.3,51.3z"/>
</svg>
